<?xml version="1.0" standalone="no"?><!DOCTYPE svg PUBLIC "-//W3C//DTD SVG 1.1//EN" "http://www.w3.org/Graphics/SVG/1.1/DTD/svg11.dtd"><svg t="1533437700247" class="icon" style="" viewBox="0 0 1024 1024" version="1.1" xmlns="http://www.w3.org/2000/svg" p-id="759" xmlns:xlink="http://www.w3.org/1999/xlink" width="200" height="200"><defs><style type="text/css"></style></defs><path d="M559.99765344 32L464.00234656 32 32.01149281 487.98896281c0 0 0.84469312 95.996265 48.00004781 95.996265s71.99719875 0 71.99719875 0 0 217.96542094 0 312.01563469c0 94.03201688 95.99722312 95.99913844 95.99722313 95.99913844l191.99731875 0c0 0 0-255.39339094 0-336.01565813 0-24.04407844 24.00002437-24.00002437 24.00002437-24.00002437l95.99530688 0c0 0 24.00098156 0.79872375 24.00098156 24.00002437 0 86.43647906 0 336.01565812 0 336.01565813s93.41908781 0 191.99540344 0c98.5753575 0 95.99818031-95.99913844 95.99818031-95.99913844L871.99317594 559.98616156c0 0 25.49882812 0 71.99911406 0 46.4974125 0 47.99621719-71.99624062 47.99621719-71.99624062L559.99765344 32z" p-id="760"></path></svg>